<svg width="64" height="64" viewBox="0 0 100 100" xmlns="http://www.w3.org/2000/svg">
      <ellipse class="body-shape" cx="50" cy="54" rx="30" ry="38" fill="#8A8A92" stroke="#4A4A52" stroke-width="2"/>
      <polygon class="ear-l" points="30,22 38,6 42,26" fill="#8A8A92" stroke="#4A4A52" stroke-width="1.8"/>
      <polygon class="ear-r" points="58,26 62,6 70,22" fill="#8A8A92" stroke="#4A4A52" stroke-width="1.8"/>
      <ellipse class="belly" cx="50" cy="62" rx="20" ry="25" fill="#F5F0E3" stroke="#4A4A52" stroke-width="1.5"/>
      <path class="v-mark" d="M 44 54 L 47 58 L 50 54" fill="none" stroke="#4A4A52" stroke-width="1.2" stroke-linecap="round"/>
      <path class="v-mark" d="M 50 62 L 53 66 L 56 62" fill="none" stroke="#4A4A52" stroke-width="1.2" stroke-linecap="round"/>
      <path class="v-mark" d="M 44 72 L 47 76 L 50 72" fill="none" stroke="#4A4A52" stroke-width="1.2" stroke-linecap="round"/>
      <ellipse class="foot-l" cx="38" cy="93" rx="8" ry="4" fill="#4A4A52" stroke="#2A2A30" stroke-width="1"/>
      <ellipse class="foot-r" cx="62" cy="93" rx="8" ry="4" fill="#4A4A52" stroke="#2A2A30" stroke-width="1"/>
      <g class="eye-l">
        <circle cx="40" cy="36" r="4.5" fill="#FFFFFF" stroke="#4A4A52" stroke-width="0.8"/>
        <circle class="iris-l" cx="40" cy="37" r="2.5" fill="#0A0A0A"/>
        <circle cx="40.5" cy="36" r="0.6" fill="#FFFFFF"/>
      </g>
      <g class="eye-r">
        <circle cx="60" cy="36" r="4.5" fill="#FFFFFF" stroke="#4A4A52" stroke-width="0.8"/>
        <circle class="iris-r" cx="60" cy="37" r="2.5" fill="#0A0A0A"/>
        <circle cx="60.5" cy="36" r="0.6" fill="#FFFFFF"/>
      </g>
      <polygon class="nose" points="48,40 52,40 50,44" fill="#2A2A30"/>
      <path class="mouth" d="M 45 48 Q 50 52 55 48" fill="none" stroke="#2A2A30" stroke-width="1.3" stroke-linecap="round"/>
      <line x1="26" y1="42" x2="38" y2="43" stroke="#2A2A30" stroke-width="0.8" stroke-linecap="round"/>
      <line x1="26" y1="45" x2="38" y2="45" stroke="#2A2A30" stroke-width="0.8" stroke-linecap="round"/>
      <line x1="26" y1="48" x2="38" y2="47" stroke="#2A2A30" stroke-width="0.8" stroke-linecap="round"/>
      <line x1="62" y1="43" x2="74" y2="42" stroke="#2A2A30" stroke-width="0.8" stroke-linecap="round"/>
      <line x1="62" y1="45" x2="74" y2="45" stroke="#2A2A30" stroke-width="0.8" stroke-linecap="round"/>
      <line x1="62" y1="47" x2="74" y2="48" stroke="#2A2A30" stroke-width="0.8" stroke-linecap="round"/>
      <g class="bell">
        <path d="M 50 14 Q 46 10 46 4 Q 50 8 54 4 Q 54 10 50 14 Z" fill="#5AB85C" stroke="#2A5A2C" stroke-width="0.8"/>
        <line x1="50" y1="14" x2="50" y2="11" stroke="#2A5A2C" stroke-width="0.8"/>
      </g>
      <circle class="hand-l" cx="22" cy="68" r="6" fill="#7A7A82" stroke="#4A4A52" stroke-width="1.5"/>
      <circle class="hand-r" cx="78" cy="68" r="6" fill="#7A7A82" stroke="#4A4A52" stroke-width="1.5"/>
      <circle class="spark" cx="50" cy="56" r="1.4" fill="#FFE659"/>
      <ellipse class="sweat" cx="72" cy="20" rx="1.6" ry="2.4" fill="#5EB8EC" stroke="#2A7FB8" stroke-width="0.5"/>
    </svg>